<svg xmlns="http://www.w3.org/2000/svg" xmlns:xlink="http://www.w3.org/1999/xlink" width="100" height="100" viewBox="0 0 100 100"><g><g transform="translate(50 50) scale(0.69 0.69) rotate(0) translate(-50 -50)" style="fill:#000000;"><svg fill="#000000" xmlns="http://www.w3.org/2000/svg" xmlns:xlink="http://www.w3.org/1999/xlink" version="1.1" x="0px" y="0px" viewBox="0 0 66 66" enable-background="new 0 0 66 66" xml:space="preserve"><g><g><path d="M58,39.9c0,1.8,1.4,3.2,3.2,3.2c1.8,0,3.2-1.4,3.2-3.2c0-1.4-0.9-2.6-2.2-3v-4.8c0-0.6-0.4-1-1-1h-4.7    c-0.2-5.3-2-10.4-5.9-14.2l5.6-5.6c0.3,0.1,0.7,0.2,1.1,0.2c1.8,0,3.2-1.4,3.2-3.2s-1.4-3.2-3.2-3.2s-3.2,1.4-3.2,3.2    c0,0.6,0.2,1.3,0.5,1.8l-5.6,5.6c-3.7-2.9-8.6-4.2-14.3-3.9V7.2c1.3-0.4,2.2-1.6,2.2-3C37,2.4,35.6,1,33.8,1    c-1.8,0-3.2,1.4-3.2,3.2c0,1.4,0.9,2.6,2.2,3v4.6c-3.6,0.4-9.5,1.9-12.6,3.8L14.6,10c1.4-2.1-0.1-5-2.7-5c-1.8,0-3.2,1.4-3.2,3.2    s1.4,3.2,3.2,3.2c0.4,0,0.7-0.1,1.1-0.2l5.5,5.5c-3.1,2.6-5.1,6.3-5.8,9.9L7,25.5L6.1,19C7.2,18.5,8,17.4,8,16.1    c0-1.8-1.4-3.2-3.2-3.2s-3.2,1.4-3.2,3.2c0,1.5,1.1,2.8,2.5,3.1l1,7.3c0.1,0.4,0.4,0.8,0.8,0.8l6.6,1.3c0,0.6-0.1,1.3,0,1.9    c0.1,1-0.1,3.1-2.1,5c-0.6,0.4-3.7,2.9-3.2,5.5c0.2,1.4,1.3,2.4,3.3,3.1c-0.5,1.5-0.7,3.4,0.6,4.5c0.1,0.9,0.4,2.5,1.3,3.4    c-0.3,1.4-0.6,4.2,0.8,5.9c0.9,1.1,2.3,1.5,4,1.2l8.3-1c1-0.1,1.3,0.3,1.9,2.6c0.4,1.7,1,4.2,3.5,4.2c0.2,0,0.4,0,0.5,0l18.2-2.3    c0.9-0.1,1.8-0.6,2.3-1.4c0.5-0.8,0.7-1.7,0.5-2.7c-0.4-1.6-0.7-2.8-1-3.9c-1-4-1-4.2-0.7-4.7c0.2-0.2,0.3-0.5,0.5-0.7l5.3,4.1    c-0.1,0.3-0.2,0.7-0.2,1c0,1.8,1.4,3.2,3.2,3.2s3.2-1.4,3.2-3.2c0-1.8-1.4-3.2-3.2-3.2c-0.7,0-1.3,0.2-1.8,0.6l-5.4-4.2    c2.7-4.6,4.2-9.7,4.3-14.6h3.7v3.8C58.9,37.4,58,38.5,58,39.9z M57.4,7.1c0.7,0,1.2,0.5,1.2,1.2c0,0.7-0.5,1.2-1.2,1.2    c-0.7,0-1.2-0.5-1.2-1.2C56.2,7.6,56.7,7.1,57.4,7.1z M33.8,3C34.5,3,35,3.5,35,4.2s-0.5,1.2-1.2,1.2c-0.7,0-1.2-0.5-1.2-1.2    S33.1,3,33.8,3z M10.8,8.3c0-0.7,0.5-1.2,1.2-1.2c1.6,0,1.6,2.4,0,2.4C11.3,9.5,10.8,8.9,10.8,8.3z M3.6,16.1    c0-0.7,0.5-1.2,1.2-1.2c0.7,0,1.2,0.5,1.2,1.2c0,0.7-0.5,1.2-1.2,1.2C4.1,17.3,3.6,16.8,3.6,16.1z M60.6,54.5    c0,0.7-0.5,1.2-1.2,1.2c-0.7,0-1.2-0.5-1.2-1.2c0-0.7,0.5-1.2,1.2-1.2C60.1,53.3,60.6,53.9,60.6,54.5z M50.2,60.1    c-0.2,0.3-0.5,0.5-0.9,0.6L31.2,63c-1,0.1-1.3-0.3-1.9-2.6c-0.4-1.7-1-4.2-3.5-4.2c-0.2,0-0.3,0-0.5,0l-8.3,1    c-1.6,0.2-2.1-0.4-2.3-0.5c-1-1.2-0.5-3.9-0.2-4.8c0.2-0.5-0.2-1.1-0.7-1.2c-0.3-0.1-0.7-1.3-0.8-2.5c0-0.3-0.2-0.7-0.5-0.8    c-1-0.6-0.1-2.7,0.2-3.2c0.3-0.6,0-1.3-0.6-1.4c-1.7-0.5-2.8-1.2-2.9-1.9c-0.4-2.4,5.8-4.3,5.4-10.3c-0.4-5.3,3-11.9,8.9-14.2    C51.7,5.6,61.2,29.6,50.1,47.3c0,0,0,0,0,0c0,0,0,0,0,0c-0.3,0.5-0.7,1.1-1,1.6c-0.9,1.3-0.7,2.1,0.4,6.3c0.3,1,0.6,2.3,1,3.8    C50.5,59.4,50.4,59.8,50.2,60.1z M61.2,41.1c-0.7,0-1.2-0.5-1.2-1.2c0-0.7,0.5-1.2,1.2-1.2c0.7,0,1.2,0.5,1.2,1.2    C62.4,40.6,61.9,41.1,61.2,41.1z"></path></g><g><path d="M36.1,29.4c0,0.5,0.4,1,1,1c0.6,0,1-0.5,1-1c0-0.3-0.1-0.5-0.3-0.7C37.2,28.1,36.1,28.4,36.1,29.4z"></path></g><g><path d="M36.1,32.2c0,0.6,0.5,1,1,1c0.5,0,1-0.4,1-1c0-0.3-0.1-0.5-0.3-0.7C37.2,30.9,36.1,31.3,36.1,32.2z"></path></g><g><path d="M36.1,35.1c0,0.5,0.4,1,1,1c0.5,0,1-0.4,1-1c0-0.3-0.1-0.5-0.3-0.7C37.2,33.8,36.1,34.2,36.1,35.1z"></path></g><g><path d="M43.6,30.7c0.4-0.4,0.4-1,0-1.4c-0.4-0.4-1-0.4-1.4,0c-0.6,0.8-2,1.5-2,3.4c0,1.8,1.4,2.6,1.8,3.1c0.4,0.4,1,0.4,1.4,0    c0.4-0.4,0.4-1,0-1.4c-0.1-0.2-2-1.4-0.8-2.5L43.6,30.7z"></path></g><g><path d="M47.3,32c0.9-1,1.3-2.4,1.3-3.7c0-2.8-2-5.2-4.7-5.8c0,0,0-0.1,0-0.1c0,0,0-0.1,0-0.1c0-3-2.5-5.5-5.6-5.5    c-1.9,0-3.6,0.9-4.6,2.4c-1-1.4-2.7-2.4-4.6-2.4c-3,0-5.5,2.5-5.6,5.5c0,0,0,0.1,0,0.1c0,0,0,0.1,0,0.1C21,23,19,25.4,19,28.2    c0,1.4,0.5,2.7,1.3,3.7c-1.3,1.2-2.1,2.8-2.1,4.6c0,3.2,2.4,5.8,5.6,6.1c0.5,2.6,2.7,4.6,5.5,4.6c1.9,0,3.6-0.9,4.6-2.4    c1,1.4,2.7,2.4,4.6,2.4c2.7,0,5-2,5.5-4.6c3.1-0.3,5.6-2.9,5.6-6.1C49.4,34.8,48.6,33.1,47.3,32z M29.2,45.3c-4.8,0-4.5-7.1,0-7.1    c0.6,0,1-0.4,1-1s-0.4-1-1-1c-2.7,0-4.9,1.9-5.4,4.4c-2.1-0.3-3.7-2-3.7-4.1c0-1.5,0.8-2.9,2.1-3.6c0.3-0.2,0.5-0.5,0.5-0.8    c0-0.3-0.1-0.7-0.4-0.9c-0.9-0.8-1.5-1.9-1.5-3.1c0-1.9,1.3-3.4,3.1-3.8c0.8,2,2.8,3.5,5.1,3.5c0.6,0,1-0.4,1-1c0-0.6-0.4-1-1-1    c-1.7,0-3.1-1.2-3.4-2.7c0,0,0-0.1,0-0.1c-0.1-0.2-0.1-0.5-0.1-0.7c0-2,1.6-3.6,3.6-3.6s3.6,1.6,3.6,3.6v19.4    C32.8,43.7,31.2,45.3,29.2,45.3z M43.8,40.7c-0.5-2.5-2.7-4.4-5.4-4.4c-0.6,0-1,0.4-1,1s0.4,1,1,1c4.6,0,4.8,7.1,0,7.1    c-2,0-3.6-1.6-3.6-3.6V22.3c0-2,1.6-3.6,3.6-3.6c2,0,3.6,1.6,3.6,3.6c0,0.3,0,0.5-0.1,0.7c0,0,0,0.1,0,0.1    c-0.4,1.6-1.8,2.7-3.4,2.7c-0.6,0-1,0.4-1,1c0,0.6,0.4,1,1,1c2.3,0,4.3-1.4,5.1-3.5c1.8,0.4,3.1,2,3.1,3.8c0,1.2-0.5,2.3-1.5,3.1    c-0.3,0.2-0.4,0.5-0.4,0.9c0,0.3,0.2,0.6,0.5,0.8c1.3,0.7,2.1,2.1,2.1,3.6C47.4,38.7,45.8,40.4,43.8,40.7z"></path></g><g><path d="M29.6,29.4c0,0.6,0.4,1,1,1c0.6,0,1-0.5,1-1c0-0.3-0.1-0.5-0.3-0.7C30.7,28.1,29.6,28.4,29.6,29.4z"></path></g><g><path d="M29.6,32.2c0,0.6,0.5,1,1,1c0.5,0,1-0.5,1-1c0-0.3-0.1-0.5-0.3-0.7C30.7,30.9,29.6,31.3,29.6,32.2z"></path></g><g><path d="M29.6,35.1c0,0.6,0.4,1,1,1c0.6,0,1-0.4,1-1c0-0.3-0.1-0.5-0.3-0.7C30.7,33.8,29.6,34.1,29.6,35.1z"></path></g><g><path d="M25.5,29.3c-0.4-0.4-1-0.4-1.4,0c-0.4,0.4-0.4,1,0,1.4c0.6,0.7,2.2,1.7,1.1,2.8l-0.8,0.8c-0.9,0.9,0.5,2.3,1.4,1.4    c0.4-0.5,1.8-1.3,1.8-3.1C27.5,30.8,26.1,30,25.5,29.3z"></path></g></g></svg></g></g></svg>